<svg xmlns="http://www.w3.org/2000/svg" xmlns:xlink="http://www.w3.org/1999/xlink" width="500" zoomAndPan="magnify" viewBox="0 0 375 374.999991" height="500" preserveAspectRatio="xMidYMid meet" version="1.0"><defs><g/><clipPath id="099be23ef9"><path d="M 52.015625 9.132812 L 304.933594 9.132812 L 304.933594 262.050781 L 52.015625 262.050781 Z M 52.015625 9.132812 " clip-rule="nonzero"/></clipPath><clipPath id="7bff98dea8"><path d="M 72.234375 18.847656 L 325.15625 18.847656 L 325.15625 271.765625 L 72.234375 271.765625 Z M 72.234375 18.847656 " clip-rule="nonzero"/></clipPath></defs><g clip-path="url(#099be23ef9)"><path fill="#ffffff" d="M 178.640625 262.382812 C 108.820312 262.382812 52.015625 205.578125 52.015625 135.757812 C 52.015625 65.9375 108.820312 9.132812 178.640625 9.132812 C 248.460938 9.132812 305.265625 65.9375 305.265625 135.757812 C 305.265625 205.578125 248.460938 262.382812 178.640625 262.382812 Z M 178.640625 11.375 C 110.058594 11.375 54.261719 67.175781 54.261719 135.757812 C 54.261719 204.339844 110.058594 260.136719 178.640625 260.136719 C 247.222656 260.136719 303.019531 204.339844 303.019531 135.757812 C 303.019531 67.175781 247.222656 11.375 178.640625 11.375 Z M 178.640625 11.375 " fill-opacity="1" fill-rule="nonzero"/></g><g clip-path="url(#7bff98dea8)"><path fill="#ffffff" d="M 198.859375 272.09375 C 129.039062 272.09375 72.234375 215.289062 72.234375 145.46875 C 72.234375 75.648438 129.039062 18.847656 198.859375 18.847656 C 268.679688 18.847656 325.484375 75.648438 325.484375 145.46875 C 325.484375 215.289062 268.679688 272.09375 198.859375 272.09375 Z M 198.859375 21.089844 C 130.277344 21.089844 74.480469 76.886719 74.480469 145.46875 C 74.480469 214.054688 130.277344 269.847656 198.859375 269.847656 C 267.441406 269.847656 323.238281 214.054688 323.238281 145.46875 C 323.238281 76.886719 267.441406 21.089844 198.859375 21.089844 Z M 198.859375 21.089844 " fill-opacity="1" fill-rule="nonzero"/></g><g fill="#ffffff" fill-opacity="1"><g transform="translate(90.273514, 169.350171)"><g><path d="M 67.359375 -60.484375 L 67.359375 0 L 55.90625 0 L 55.90625 -27.71875 L 36.953125 -0.796875 L 36.796875 -0.796875 L 18.5625 -25.984375 L 18.5625 0 L 7.5 0 L 7.5 -60.484375 L 7.578125 -60.484375 L 37.03125 -18.71875 L 67.203125 -60.484375 Z M 67.359375 -60.484375 "/></g></g></g><g fill="#ffffff" fill-opacity="1"><g transform="translate(209.958771, 170.755277)"><g><path d="M 24.078125 -12.234375 C 24.078125 -7.285156 23.085938 -3.007812 21.109375 0.59375 C 19.140625 4.195312 16.363281 6.972656 12.78125 8.921875 C 9.207031 10.867188 5.078125 11.921875 0.390625 12.078125 L 0.390625 0.953125 C 8.503906 0.523438 12.5625 -3.953125 12.5625 -12.484375 L 12.5625 -58.125 L 24.078125 -58.125 Z M 24.078125 -12.234375 "/></g></g></g><path stroke-linecap="round" transform="matrix(0, -1.405103, 1.405103, 0, 185.941149, 172.96285)" fill="none" stroke-linejoin="miter" d="M 0.999397 1.000999 L 45.043649 1.000999 " stroke="#ffffff" stroke-width="2" stroke-opacity="1" stroke-miterlimit="4"/><g fill="#ffffff" fill-opacity="1"><g transform="translate(45.924979, 324.019258)"><g><path d="M 35.171875 -31.875 L 35.171875 0 L 31.0625 0 L 31.0625 -20 L 19.703125 -3.890625 L 19.609375 -3.890625 L 8.46875 -19.4375 L 8.46875 0 L 4.4375 0 L 4.4375 -31.875 L 4.484375 -31.875 L 19.703125 -10.34375 L 35.125 -31.875 Z M 35.171875 -31.875 "/></g></g></g><g fill="#ffffff" fill-opacity="1"><g transform="translate(85.530038, 324.019258)"><g><path d="M 21.625 -17.6875 L 21.625 0 L 17.65625 0 L 17.65625 -2.90625 C 17.019531 -2.082031 16.101562 -1.320312 14.90625 -0.625 C 13.71875 0.0703125 12.367188 0.421875 10.859375 0.421875 C 9.171875 0.421875 7.648438 0.0625 6.296875 -0.65625 C 4.953125 -1.382812 3.882812 -2.445312 3.09375 -3.84375 C 2.3125 -5.238281 1.921875 -6.90625 1.921875 -8.84375 C 1.921875 -10.78125 2.328125 -12.46875 3.140625 -13.90625 C 3.953125 -15.34375 5.046875 -16.453125 6.421875 -17.234375 C 7.804688 -18.023438 9.34375 -18.421875 11.03125 -18.421875 C 12.539062 -18.421875 13.847656 -18.09375 14.953125 -17.4375 C 16.066406 -16.78125 16.96875 -15.925781 17.65625 -14.875 L 17.953125 -17.6875 Z M 11.921875 -2.859375 C 13.378906 -2.859375 14.625 -3.265625 15.65625 -4.078125 C 16.695312 -4.890625 17.363281 -5.992188 17.65625 -7.390625 L 17.65625 -10.890625 C 17.3125 -12.148438 16.597656 -13.171875 15.515625 -13.953125 C 14.429688 -14.734375 13.191406 -15.125 11.796875 -15.125 C 10.742188 -15.125 9.765625 -14.867188 8.859375 -14.359375 C 7.960938 -13.847656 7.25 -13.128906 6.71875 -12.203125 C 6.195312 -11.273438 5.9375 -10.226562 5.9375 -9.0625 C 5.9375 -7.914062 6.207031 -6.875 6.75 -5.9375 C 7.289062 -5 8.015625 -4.25 8.921875 -3.6875 C 9.835938 -3.132812 10.835938 -2.859375 11.921875 -2.859375 Z M 11.921875 -2.859375 "/></g></g></g><g fill="#ffffff" fill-opacity="1"><g transform="translate(110.608974, 324.019258)"><g><path d="M 14.4375 -18.375 C 16.09375 -18.375 17.460938 -17.878906 18.546875 -16.890625 C 19.628906 -15.910156 20.1875 -14.640625 20.21875 -13.078125 L 20.21875 0 L 16.203125 0 L 16.203125 -11.703125 C 16.140625 -12.703125 15.835938 -13.488281 15.296875 -14.0625 C 14.753906 -14.632812 13.941406 -14.929688 12.859375 -14.953125 C 11.835938 -14.953125 10.910156 -14.664062 10.078125 -14.09375 C 9.253906 -13.53125 8.609375 -12.734375 8.140625 -11.703125 C 7.671875 -10.679688 7.4375 -9.546875 7.4375 -8.296875 L 7.4375 0 L 3.46875 0 L 3.46875 -33.125 L 7.34375 -33.125 L 7.34375 -14.484375 C 8 -15.648438 8.945312 -16.585938 10.1875 -17.296875 C 11.425781 -18.015625 12.84375 -18.375 14.4375 -18.375 Z M 14.4375 -18.375 "/></g></g></g><g fill="#ffffff" fill-opacity="1"><g transform="translate(134.235294, 324.019258)"><g><path d="M 26.15625 -18.421875 C 27.863281 -18.421875 29.222656 -17.9375 30.234375 -16.96875 C 31.242188 -16 31.78125 -14.71875 31.84375 -13.125 L 31.84375 0 L 27.859375 0 L 27.859375 -11.671875 C 27.773438 -13.742188 26.835938 -14.835938 25.046875 -14.953125 C 24.015625 -14.953125 23.09375 -14.644531 22.28125 -14.03125 C 21.46875 -13.425781 20.832031 -12.625 20.375 -11.625 C 19.925781 -10.625 19.6875 -9.554688 19.65625 -8.421875 L 19.65625 0 L 15.640625 0 L 15.640625 -11.671875 C 15.554688 -13.742188 14.585938 -14.835938 12.734375 -14.953125 C 11.734375 -14.953125 10.828125 -14.644531 10.015625 -14.03125 C 9.203125 -13.425781 8.566406 -12.613281 8.109375 -11.59375 C 7.660156 -10.582031 7.4375 -9.507812 7.4375 -8.375 L 7.4375 0 L 3.46875 0 L 3.46875 -17.6875 L 7.046875 -17.6875 L 7.34375 -14.359375 C 8.03125 -15.640625 8.960938 -16.632812 10.140625 -17.34375 C 11.328125 -18.0625 12.675781 -18.421875 14.1875 -18.421875 C 15.613281 -18.421875 16.8125 -18.082031 17.78125 -17.40625 C 18.75 -16.738281 19.375 -15.820312 19.65625 -14.65625 C 20.394531 -15.820312 21.332031 -16.738281 22.46875 -17.40625 C 23.613281 -18.082031 24.84375 -18.421875 26.15625 -18.421875 Z M 26.15625 -18.421875 "/></g></g></g><g fill="#ffffff" fill-opacity="1"><g transform="translate(169.48251, 324.019258)"><g><path d="M 19.921875 -17.6875 L 19.921875 0 L 16.328125 0 L 16.0625 -3.375 C 15.46875 -2.175781 14.539062 -1.195312 13.28125 -0.4375 C 12.03125 0.3125 10.640625 0.6875 9.109375 0.6875 C 7.484375 0.6875 6.148438 0.195312 5.109375 -0.78125 C 4.066406 -1.769531 3.519531 -3.046875 3.46875 -4.609375 L 3.46875 -17.6875 L 7.4375 -17.6875 L 7.4375 -6.03125 C 7.488281 -5.03125 7.78125 -4.238281 8.3125 -3.65625 C 8.84375 -3.070312 9.632812 -2.765625 10.6875 -2.734375 C 11.65625 -2.734375 12.535156 -3.023438 13.328125 -3.609375 C 14.128906 -4.191406 14.765625 -4.992188 15.234375 -6.015625 C 15.703125 -7.046875 15.9375 -8.1875 15.9375 -9.4375 L 15.9375 -17.6875 Z M 19.921875 -17.6875 "/></g></g></g><g fill="#ffffff" fill-opacity="1"><g transform="translate(192.852492, 324.019258)"><g><path d="M 21.921875 -33.125 L 21.921875 0 L 17.90625 0 L 17.90625 -2.78125 C 17.050781 -1.78125 16.003906 -0.992188 14.765625 -0.421875 C 13.523438 0.140625 12.164062 0.421875 10.6875 0.421875 C 9.03125 0.421875 7.53125 0.0234375 6.1875 -0.765625 C 4.851562 -1.566406 3.804688 -2.6875 3.046875 -4.125 C 2.296875 -5.5625 1.921875 -7.222656 1.921875 -9.109375 C 1.921875 -11.015625 2.316406 -12.671875 3.109375 -14.078125 C 3.910156 -15.492188 5.007812 -16.570312 6.40625 -17.3125 C 7.800781 -18.050781 9.382812 -18.421875 11.15625 -18.421875 C 12.488281 -18.421875 13.773438 -18.140625 15.015625 -17.578125 C 16.253906 -17.023438 17.234375 -16.265625 17.953125 -15.296875 L 17.953125 -33.125 Z M 11.921875 -2.984375 C 13.460938 -2.984375 14.765625 -3.394531 15.828125 -4.21875 C 16.898438 -5.050781 17.59375 -6.164062 17.90625 -7.5625 L 17.90625 -10.890625 C 17.5625 -12.179688 16.832031 -13.226562 15.71875 -14.03125 C 14.613281 -14.84375 13.347656 -15.25 11.921875 -15.25 C 10.835938 -15.25 9.835938 -14.984375 8.921875 -14.453125 C 8.015625 -13.929688 7.289062 -13.207031 6.75 -12.28125 C 6.207031 -11.351562 5.9375 -10.304688 5.9375 -9.140625 C 5.9375 -8.003906 6.207031 -6.960938 6.75 -6.015625 C 7.289062 -5.078125 8.015625 -4.335938 8.921875 -3.796875 C 9.835938 -3.253906 10.835938 -2.984375 11.921875 -2.984375 Z M 11.921875 -2.984375 "/></g></g></g><g fill="#ffffff" fill-opacity="1"><g transform="translate(218.187766, 324.019258)"><g><path d="M 19.921875 -17.6875 L 19.921875 0 L 16.328125 0 L 16.0625 -3.375 C 15.46875 -2.175781 14.539062 -1.195312 13.28125 -0.4375 C 12.03125 0.3125 10.640625 0.6875 9.109375 0.6875 C 7.484375 0.6875 6.148438 0.195312 5.109375 -0.78125 C 4.066406 -1.769531 3.519531 -3.046875 3.46875 -4.609375 L 3.46875 -17.6875 L 7.4375 -17.6875 L 7.4375 -6.03125 C 7.488281 -5.03125 7.78125 -4.238281 8.3125 -3.65625 C 8.84375 -3.070312 9.632812 -2.765625 10.6875 -2.734375 C 11.65625 -2.734375 12.535156 -3.023438 13.328125 -3.609375 C 14.128906 -4.191406 14.765625 -4.992188 15.234375 -6.015625 C 15.703125 -7.046875 15.9375 -8.1875 15.9375 -9.4375 L 15.9375 -17.6875 Z M 19.921875 -17.6875 "/></g></g></g><g fill="#ffffff" fill-opacity="1"><g transform="translate(241.557749, 324.019258)"><g><path d="M 7.4375 -33.125 L 7.4375 0 L 3.46875 0 L 3.46875 -33.125 Z M 7.4375 -33.125 "/></g></g></g><g fill="#ffffff" fill-opacity="1"><g transform="translate(252.452337, 324.019258)"><g/></g></g><g fill="#ffffff" fill-opacity="1"><g transform="translate(265.953085, 324.019258)"><g><path d="M 11.15625 -5.59375 C 11.15625 -3.144531 10.679688 -1.03125 9.734375 0.75 C 8.796875 2.53125 7.492188 3.894531 5.828125 4.84375 C 4.160156 5.800781 2.257812 6.3125 0.125 6.375 L 0.125 2.34375 C 2.238281 2.226562 3.914062 1.492188 5.15625 0.140625 C 6.394531 -1.203125 7.015625 -3.15625 7.015625 -5.71875 L 7.015625 -30.890625 L 11.15625 -30.890625 Z M 11.15625 -5.59375 "/></g></g></g><g fill="#ffffff" fill-opacity="1"><g transform="translate(281.547317, 324.019258)"><g><path d="M 1.921875 -9.015625 C 1.921875 -10.753906 2.335938 -12.34375 3.171875 -13.78125 C 4.015625 -15.21875 5.1875 -16.347656 6.6875 -17.171875 C 8.1875 -18.003906 9.875 -18.421875 11.75 -18.421875 C 13.632812 -18.421875 15.304688 -18.003906 16.765625 -17.171875 C 18.234375 -16.347656 19.375 -15.222656 20.1875 -13.796875 C 21 -12.378906 21.40625 -10.785156 21.40625 -9.015625 C 21.40625 -7.253906 21 -5.648438 20.1875 -4.203125 C 19.375 -2.765625 18.226562 -1.632812 16.75 -0.8125 C 15.269531 0.0078125 13.578125 0.421875 11.671875 0.421875 C 9.816406 0.421875 8.144531 0.03125 6.65625 -0.75 C 5.175781 -1.53125 4.015625 -2.632812 3.171875 -4.0625 C 2.335938 -5.488281 1.921875 -7.140625 1.921875 -9.015625 Z M 5.9375 -8.96875 C 5.9375 -7.863281 6.1875 -6.835938 6.6875 -5.890625 C 7.1875 -4.953125 7.867188 -4.210938 8.734375 -3.671875 C 9.609375 -3.128906 10.570312 -2.859375 11.625 -2.859375 C 13.28125 -2.859375 14.644531 -3.441406 15.71875 -4.609375 C 16.800781 -5.785156 17.34375 -7.238281 17.34375 -8.96875 C 17.34375 -10.707031 16.800781 -12.164062 15.71875 -13.34375 C 14.644531 -14.53125 13.28125 -15.125 11.625 -15.125 C 10.539062 -15.125 9.570312 -14.847656 8.71875 -14.296875 C 7.863281 -13.742188 7.1875 -12.992188 6.6875 -12.046875 C 6.1875 -11.109375 5.9375 -10.082031 5.9375 -8.96875 Z M 5.9375 -8.96875 "/></g></g></g><g fill="#ffffff" fill-opacity="1"><g transform="translate(304.831839, 324.019258)"><g><path d="M 20.296875 -17.6875 L 8.890625 8.5 L 4.953125 8.5 L 9.015625 -0.59375 L 0.8125 -17.6875 L 5.296875 -17.6875 L 11.03125 -5.078125 L 16.625 -17.6875 Z M 20.296875 -17.6875 "/></g></g></g><g fill="#ffffff" fill-opacity="1"><g transform="translate(122.003758, 358.262611)"><g><path d="M 11.84375 -16.125 L 11.84375 -14.0625 L 7.515625 -14.0625 L 7.515625 0 L 5.359375 0 L 5.359375 -14.0625 L 1.140625 -14.0625 L 1.140625 -16.125 Z M 11.84375 -16.125 "/></g></g></g><g fill="#ffffff" fill-opacity="1"><g transform="translate(138.623074, 358.262611)"><g><path d="M 6.140625 -1.5625 C 6.910156 -1.5625 7.660156 -1.828125 8.390625 -2.359375 L 9.34375 -0.828125 C 8.851562 -0.492188 8.320312 -0.234375 7.75 -0.046875 C 7.175781 0.128906 6.625 0.21875 6.09375 0.21875 C 5.0625 0.21875 4.160156 0.0078125 3.390625 -0.40625 C 2.628906 -0.832031 2.039062 -1.414062 1.625 -2.15625 C 1.207031 -2.90625 1 -3.75 1 -4.6875 C 1 -5.59375 1.222656 -6.421875 1.671875 -7.171875 C 2.128906 -7.921875 2.753906 -8.515625 3.546875 -8.953125 C 4.335938 -9.390625 5.203125 -9.609375 6.140625 -9.609375 C 7.335938 -9.609375 8.34375 -9.253906 9.15625 -8.546875 C 9.96875 -7.847656 10.523438 -6.863281 10.828125 -5.59375 L 3.5 -3.03125 C 3.769531 -2.570312 4.128906 -2.210938 4.578125 -1.953125 C 5.035156 -1.691406 5.554688 -1.5625 6.140625 -1.5625 Z M 5.984375 -7.96875 C 5.128906 -7.96875 4.425781 -7.671875 3.875 -7.078125 C 3.332031 -6.484375 3.0625 -5.722656 3.0625 -4.796875 C 3.0625 -4.578125 3.066406 -4.40625 3.078125 -4.28125 L 8.453125 -6.265625 C 8.234375 -6.773438 7.914062 -7.1875 7.5 -7.5 C 7.09375 -7.8125 6.585938 -7.96875 5.984375 -7.96875 Z M 5.984375 -7.96875 "/></g></g></g><g fill="#ffffff" fill-opacity="1"><g transform="translate(153.859412, 358.262611)"><g><path d="M 9.296875 -0.875 C 8.878906 -0.53125 8.382812 -0.257812 7.8125 -0.0625 C 7.25 0.125 6.664062 0.21875 6.0625 0.21875 C 5.070312 0.21875 4.191406 0.0195312 3.421875 -0.375 C 2.660156 -0.78125 2.066406 -1.347656 1.640625 -2.078125 C 1.210938 -2.816406 1 -3.671875 1 -4.640625 C 1 -5.585938 1.222656 -6.429688 1.671875 -7.171875 C 2.117188 -7.910156 2.710938 -8.476562 3.453125 -8.875 C 4.203125 -9.28125 5.007812 -9.484375 5.875 -9.484375 C 7.28125 -9.484375 8.445312 -9.097656 9.375 -8.328125 L 8.328125 -6.96875 C 8.023438 -7.1875 7.679688 -7.375 7.296875 -7.53125 C 6.910156 -7.6875 6.492188 -7.765625 6.046875 -7.765625 C 5.492188 -7.765625 4.988281 -7.625 4.53125 -7.34375 C 4.082031 -7.070312 3.726562 -6.695312 3.46875 -6.21875 C 3.207031 -5.75 3.078125 -5.222656 3.078125 -4.640625 C 3.078125 -4.054688 3.210938 -3.523438 3.484375 -3.046875 C 3.765625 -2.578125 4.140625 -2.203125 4.609375 -1.921875 C 5.085938 -1.640625 5.632812 -1.5 6.25 -1.5 C 7.007812 -1.5 7.671875 -1.722656 8.234375 -2.171875 Z M 9.296875 -0.875 "/></g></g></g><g fill="#ffffff" fill-opacity="1"><g transform="translate(167.668154, 358.262611)"><g><path d="M 7.546875 -9.59375 C 8.398438 -9.59375 9.109375 -9.335938 9.671875 -8.828125 C 10.242188 -8.316406 10.535156 -7.648438 10.546875 -6.828125 L 10.546875 0 L 8.453125 0 L 8.453125 -6.109375 C 8.421875 -6.628906 8.265625 -7.035156 7.984375 -7.328125 C 7.703125 -7.628906 7.28125 -7.789062 6.71875 -7.8125 C 6.175781 -7.8125 5.691406 -7.660156 5.265625 -7.359375 C 4.835938 -7.066406 4.5 -6.648438 4.25 -6.109375 C 4 -5.578125 3.875 -4.984375 3.875 -4.328125 L 3.875 0 L 1.8125 0 L 1.8125 -17.296875 L 3.84375 -17.296875 L 3.84375 -7.5625 C 4.175781 -8.175781 4.664062 -8.664062 5.3125 -9.03125 C 5.96875 -9.40625 6.710938 -9.59375 7.546875 -9.59375 Z M 7.546875 -9.59375 "/></g></g></g><g fill="#ffffff" fill-opacity="1"><g transform="translate(183.640601, 358.262611)"><g/></g></g><g fill="#ffffff" fill-opacity="1"><g transform="translate(194.326475, 358.262611)"><g><path d="M 14.96875 -1.390625 C 14.476562 -0.992188 13.707031 -0.632812 12.65625 -0.3125 C 11.613281 0.0078125 10.644531 0.171875 9.75 0.171875 C 8.070312 0.171875 6.59375 -0.171875 5.3125 -0.859375 C 4.03125 -1.546875 3.039062 -2.492188 2.34375 -3.703125 C 1.65625 -4.910156 1.3125 -6.265625 1.3125 -7.765625 C 1.3125 -9.515625 1.679688 -11.03125 2.421875 -12.3125 C 3.171875 -13.601562 4.175781 -14.59375 5.4375 -15.28125 C 6.707031 -15.96875 8.09375 -16.3125 9.59375 -16.3125 C 10.5 -16.3125 11.351562 -16.203125 12.15625 -15.984375 C 12.957031 -15.765625 13.679688 -15.476562 14.328125 -15.125 L 13.609375 -13.140625 C 13.128906 -13.410156 12.53125 -13.644531 11.8125 -13.84375 C 11.09375 -14.039062 10.441406 -14.140625 9.859375 -14.140625 C 8.609375 -14.140625 7.503906 -13.882812 6.546875 -13.375 C 5.585938 -12.875 4.847656 -12.15625 4.328125 -11.21875 C 3.804688 -10.28125 3.546875 -9.1875 3.546875 -7.9375 C 3.546875 -6.78125 3.804688 -5.75 4.328125 -4.84375 C 4.847656 -3.9375 5.582031 -3.234375 6.53125 -2.734375 C 7.488281 -2.234375 8.578125 -1.984375 9.796875 -1.984375 C 10.359375 -1.984375 10.90625 -2.039062 11.4375 -2.15625 C 11.976562 -2.269531 12.425781 -2.429688 12.78125 -2.640625 L 12.78125 -5.828125 L 9.578125 -5.828125 L 9.578125 -7.90625 L 14.96875 -7.90625 Z M 14.96875 -1.390625 "/></g></g></g><g fill="#ffffff" fill-opacity="1"><g transform="translate(214.737847, 358.262611)"><g><path d="M 6.140625 -1.5625 C 6.910156 -1.5625 7.660156 -1.828125 8.390625 -2.359375 L 9.34375 -0.828125 C 8.851562 -0.492188 8.320312 -0.234375 7.75 -0.046875 C 7.175781 0.128906 6.625 0.21875 6.09375 0.21875 C 5.0625 0.21875 4.160156 0.0078125 3.390625 -0.40625 C 2.628906 -0.832031 2.039062 -1.414062 1.625 -2.15625 C 1.207031 -2.90625 1 -3.75 1 -4.6875 C 1 -5.59375 1.222656 -6.421875 1.671875 -7.171875 C 2.128906 -7.921875 2.753906 -8.515625 3.546875 -8.953125 C 4.335938 -9.390625 5.203125 -9.609375 6.140625 -9.609375 C 7.335938 -9.609375 8.34375 -9.253906 9.15625 -8.546875 C 9.96875 -7.847656 10.523438 -6.863281 10.828125 -5.59375 L 3.5 -3.03125 C 3.769531 -2.570312 4.128906 -2.210938 4.578125 -1.953125 C 5.035156 -1.691406 5.554688 -1.5625 6.140625 -1.5625 Z M 5.984375 -7.96875 C 5.128906 -7.96875 4.425781 -7.671875 3.875 -7.078125 C 3.332031 -6.484375 3.0625 -5.722656 3.0625 -4.796875 C 3.0625 -4.578125 3.066406 -4.40625 3.078125 -4.28125 L 8.453125 -6.265625 C 8.234375 -6.773438 7.914062 -7.1875 7.5 -7.5 C 7.09375 -7.8125 6.585938 -7.96875 5.984375 -7.96875 Z M 5.984375 -7.96875 "/></g></g></g><g fill="#ffffff" fill-opacity="1"><g transform="translate(229.974188, 358.262611)"><g><path d="M 6.140625 -1.5625 C 6.910156 -1.5625 7.660156 -1.828125 8.390625 -2.359375 L 9.34375 -0.828125 C 8.851562 -0.492188 8.320312 -0.234375 7.75 -0.046875 C 7.175781 0.128906 6.625 0.21875 6.09375 0.21875 C 5.0625 0.21875 4.160156 0.0078125 3.390625 -0.40625 C 2.628906 -0.832031 2.039062 -1.414062 1.625 -2.15625 C 1.207031 -2.90625 1 -3.75 1 -4.6875 C 1 -5.59375 1.222656 -6.421875 1.671875 -7.171875 C 2.128906 -7.921875 2.753906 -8.515625 3.546875 -8.953125 C 4.335938 -9.390625 5.203125 -9.609375 6.140625 -9.609375 C 7.335938 -9.609375 8.34375 -9.253906 9.15625 -8.546875 C 9.96875 -7.847656 10.523438 -6.863281 10.828125 -5.59375 L 3.5 -3.03125 C 3.769531 -2.570312 4.128906 -2.210938 4.578125 -1.953125 C 5.035156 -1.691406 5.554688 -1.5625 6.140625 -1.5625 Z M 5.984375 -7.96875 C 5.128906 -7.96875 4.425781 -7.671875 3.875 -7.078125 C 3.332031 -6.484375 3.0625 -5.722656 3.0625 -4.796875 C 3.0625 -4.578125 3.066406 -4.40625 3.078125 -4.28125 L 8.453125 -6.265625 C 8.234375 -6.773438 7.914062 -7.1875 7.5 -7.5 C 7.09375 -7.8125 6.585938 -7.96875 5.984375 -7.96875 Z M 5.984375 -7.96875 "/></g></g></g><g fill="#ffffff" fill-opacity="1"><g transform="translate(245.21053, 358.262611)"><g><path d="M 5.09375 -4.4375 L 3.875 -3.453125 L 3.875 0 L 1.8125 0 L 1.8125 -17.296875 L 3.875 -17.296875 L 3.875 -5.625 L 8.65625 -9.453125 L 9.921875 -8.34375 L 6.515625 -5.59375 L 10.375 0 L 7.9375 0 Z M 5.09375 -4.4375 "/></g></g></g></svg>